<?xml version="1.0" encoding="utf-8"?>
<!-- Generator: Adobe Illustrator 23.0.1, SVG Export Plug-In . SVG Version: 6.00 Build 0)  -->
<svg version="1.1" id="Layer_1" xmlns="http://www.w3.org/2000/svg" xmlns:xlink="http://www.w3.org/1999/xlink" x="0px" y="0px"
	 viewBox="0 0 3000 3000" style="enable-background:new 0 0 3000 3000;" xml:space="preserve">
<style type="text/css">
	.st0{fill:none;stroke:#ED1C24;stroke-width:120;stroke-linecap:round;stroke-linejoin:round;stroke-miterlimit:10;}
</style>
<image style="display:none;overflow:visible;enable-background:new    ;" width="3000" height="3000" xlink:href="ept.png"  transform="matrix(1 0 0 1 177.8824 135.5294)">
</image>
<path class="st0" d="M308.9,325.9c0,0,33.9,12.7,57.2,12.7s49.8,11.6,74.1,15.9s90,7.4,130.2,7.4s385.4,0,385.4,0"/>
<path class="st0" d="M338.6,771.6c0,0,78.4,1.1,124.9-7.4s173.6-13.8,234-8.5s355.8,25.4,355.8,25.4"/>
<path class="st0" d="M375.6,333.3c0,0,14.8,191.6,14.8,237.2s0,199.1,26.5,340.9c26.5,141.9,40.2,264.7,45.5,298.6
	c5.3,33.9,18,59.3,48.7,59.3s163.1,7.4,184.8,0s125.5,6.4,161.5,15.9s154.6,6.4,154.6,6.4"/>
<path class="st0" d="M1220.9,1120.7c0,0-26.8,574.6-21.2,705.9c5.6,131.3,32.5,214.6,32.5,214.6"/>
<path class="st0" d="M1012,1095.3c0,0,264-38.1,426.4,0s262.6,86.1,314.8,107.3c52.2,21.2,60.7,63.5,69.2,105.9s15.5,169.4-36.7,216
	s-104.5,86.1-197.6,80.5s-406.6-24-406.6-24"/>
<line class="st0" x1="1520.2" y1="1940.9" x2="2620" y2="1654.4"/>
<path class="st0" d="M2199.3,1737.6c0,0-26.8,430.6-33.9,498.4s-4.2,156.7,16.9,242.8c21.2,86.1,5.6,166.6,5.6,166.6"/>
</svg>
